<svg width="1440" height="1024" viewBox="0 0 1440 1024" fill="none" xmlns="http://www.w3.org/2000/svg">
<g clip-path="url(#clip0_1903_22)">
<rect width="1440" height="1024" fill="#0B0B0B"/>
<g clip-path="url(#clip1_1903_22)">
<path d="M225.804 671.43C227.174 669.424 228.931 667.712 230.972 666.395C233.013 665.078 235.297 664.183 237.689 663.761C240.081 663.339 242.534 663.4 244.902 663.939C247.27 664.478 249.507 665.486 251.481 666.902L256.043 670.183L261.558 669.14C263.946 668.69 266.4 668.722 268.775 669.234C271.151 669.746 273.4 670.727 275.39 672.121C277.381 673.515 279.073 675.293 280.366 677.35C281.66 679.407 282.529 681.702 282.922 684.099L283.835 689.638L288.466 692.805C290.472 694.175 292.184 695.933 293.501 697.974C294.817 700.015 295.713 702.298 296.135 704.691C296.557 707.083 296.496 709.535 295.957 711.903C295.417 714.272 294.41 716.508 292.994 718.482L289.719 723.043L290.762 728.559C291.212 730.947 291.18 733.4 290.668 735.776C290.156 738.151 289.175 740.4 287.781 742.391C286.387 744.381 284.609 746.073 282.552 747.366C280.495 748.66 278.2 749.529 275.803 749.923L270.264 750.835L267.097 755.467C265.727 757.472 263.969 759.184 261.928 760.501C259.887 761.818 257.604 762.714 255.211 763.135C252.819 763.557 250.367 763.497 247.999 762.957C245.63 762.418 243.394 761.41 241.42 759.994L236.859 756.719L231.343 757.762C228.955 758.212 226.502 758.18 224.126 757.669C221.751 757.157 219.502 756.175 217.511 754.781C215.521 753.388 213.829 751.61 212.536 749.553C211.242 747.496 210.373 745.201 209.979 742.803L209.067 737.264L204.435 734.097C202.43 732.727 200.718 730.97 199.401 728.929C198.084 726.888 197.188 724.604 196.767 722.212C196.345 719.82 196.405 717.367 196.945 714.999C197.484 712.631 198.492 710.394 199.908 708.42L203.183 703.859L202.14 698.344C201.69 695.956 201.722 693.502 202.233 691.127C202.745 688.751 203.727 686.502 205.121 684.512C206.515 682.521 208.292 680.829 210.349 679.536C212.406 678.242 214.701 677.373 217.099 676.98L222.638 676.067L225.805 671.436L225.804 671.43ZM243.538 733.178C243.682 733.993 243.985 734.773 244.43 735.471C244.875 736.17 245.453 736.774 246.131 737.249C246.81 737.724 247.575 738.061 248.384 738.24C249.192 738.419 250.028 738.437 250.844 738.294C251.66 738.15 252.439 737.847 253.138 737.402C253.836 736.957 254.44 736.378 254.915 735.7C255.39 735.022 255.727 734.256 255.906 733.448C256.086 732.639 256.104 731.803 255.96 730.987C255.67 729.34 254.737 727.876 253.366 726.916C251.996 725.957 250.301 725.581 248.654 725.871C247.006 726.162 245.542 727.095 244.582 728.465C243.623 729.835 243.247 731.53 243.538 733.178ZM251.268 718.833C250.932 715.473 251.605 713.554 255.143 710.081C258.809 706.392 260.471 702.16 259.489 696.595C258.038 688.366 251.336 683.771 243.001 685.24C236.665 686.357 232.409 690.259 231.37 695.553C231.029 697.009 230.995 698.52 231.269 699.989C231.699 702.43 233.23 703.742 235.355 703.368C237.044 703.07 238.02 701.956 238.299 699.582C238.632 695.732 240.558 693.324 243.968 692.723C247.757 692.055 250.854 694.365 251.553 698.328C252.169 701.825 251.23 704.052 247.898 707.458C244.528 710.825 243.148 714.149 243.943 718.658L244.064 719.348C244.533 722.006 246.172 723.747 248.514 723.334C250.601 722.966 251.381 721.292 251.268 718.833Z" fill="white" fill-opacity="0.32"/>
</g>
<g clip-path="url(#clip2_1903_22)">
<path d="M1052.8 8.13214C1054.17 6.12642 1055.93 4.41481 1057.97 3.09788C1060.01 1.78095 1062.3 0.885265 1064.69 0.463466C1067.08 0.0416668 1069.53 0.10226 1071.9 0.641685C1074.27 1.18111 1076.51 2.18849 1078.48 3.60461L1083.04 6.88611L1088.56 5.84307C1090.95 5.39283 1093.4 5.42458 1095.78 5.93647C1098.15 6.44835 1100.4 7.43003 1102.39 8.82378C1104.38 10.2175 1106.07 11.9952 1107.37 14.0523C1108.66 16.1093 1109.53 18.4043 1109.92 20.8021L1110.83 26.341L1115.47 29.5078C1117.47 30.878 1119.18 32.6352 1120.5 34.6763C1121.82 36.7173 1122.71 39.001 1123.13 41.3932C1123.56 43.7853 1123.5 46.2376 1122.96 48.606C1122.42 50.9744 1121.41 53.2111 1119.99 55.1846L1116.72 59.7456L1117.76 65.2615C1118.21 67.6493 1118.18 70.1031 1117.67 72.4785C1117.16 74.8539 1116.17 77.103 1114.78 79.0935C1113.39 81.0839 1111.61 82.7756 1109.55 84.0691C1107.5 85.3625 1105.2 86.2316 1102.8 86.6252L1097.26 87.5378L1094.1 92.1693C1092.73 94.175 1090.97 95.8866 1088.93 97.2036C1086.89 98.5205 1084.6 99.4162 1082.21 99.838C1079.82 100.26 1077.37 100.199 1075 99.6598C1072.63 99.1203 1070.39 98.113 1068.42 96.6968L1063.86 93.4216L1058.34 94.4646C1055.96 94.9148 1053.5 94.8831 1051.13 94.3712C1048.75 93.8593 1046.5 92.8776 1044.51 91.4839C1042.52 90.0901 1040.83 88.3125 1039.54 86.2554C1038.24 84.1983 1037.37 81.9034 1036.98 79.5056L1036.07 73.9667L1031.44 70.7999C1029.43 69.4297 1027.72 67.6725 1026.4 65.6314C1025.08 63.5903 1024.19 61.3066 1023.77 58.9145C1023.34 56.5224 1023.41 54.07 1023.94 51.7016C1024.48 49.3332 1025.49 47.0966 1026.91 45.123L1030.18 40.5621L1029.14 35.0462C1028.69 32.6583 1028.72 30.2046 1029.23 27.8292C1029.75 25.4538 1030.73 23.2047 1032.12 21.2142C1033.51 19.2237 1035.29 17.532 1037.35 16.2386C1039.41 14.9451 1041.7 14.0761 1044.1 13.6825L1049.64 12.7698L1052.8 8.13835L1052.8 8.13214ZM1070.54 69.8803C1070.68 70.6959 1070.98 71.4753 1071.43 72.1738C1071.87 72.8723 1072.45 73.4764 1073.13 73.9514C1073.81 74.4265 1074.58 74.7633 1075.38 74.9425C1076.19 75.1218 1077.03 75.14 1077.84 74.9962C1078.66 74.8524 1079.44 74.5493 1080.14 74.1043C1080.84 73.6593 1081.44 73.0811 1081.92 72.4026C1082.39 71.7241 1082.73 70.9588 1082.91 70.1502C1083.09 69.3415 1083.1 68.5055 1082.96 67.6899C1082.67 66.0426 1081.74 64.5781 1080.37 63.6187C1079 62.6593 1077.3 62.2835 1075.65 62.5739C1074.01 62.8644 1072.54 63.7974 1071.58 65.1676C1070.62 66.5378 1070.25 68.233 1070.54 69.8803ZM1078.27 55.5358C1077.93 52.1752 1078.61 50.2569 1082.14 46.7832C1085.81 43.0948 1087.47 38.8631 1086.49 33.2979C1085.04 25.0682 1078.34 20.4733 1070 21.943C1063.67 23.0601 1059.41 26.9615 1058.37 32.2553C1058.03 33.7112 1057.99 35.2222 1058.27 36.6921C1058.7 39.1331 1060.23 40.4449 1062.35 40.0704C1064.04 39.7725 1065.02 38.659 1065.3 36.285C1065.63 32.435 1067.56 30.0268 1070.97 29.4256C1074.76 28.7575 1077.85 31.0677 1078.55 35.0304C1079.17 38.5273 1078.23 40.7551 1074.9 44.1604C1071.53 47.5278 1070.15 50.8516 1070.94 55.3609L1071.06 56.0503C1071.53 58.7087 1073.17 60.4498 1075.51 60.0369C1077.6 59.6689 1078.38 57.9943 1078.27 55.5358Z" fill="white" fill-opacity="0.32"/>
</g>
<g clip-path="url(#clip3_1903_22)">
<path d="M692.272 890.757C693.643 888.751 695.4 887.039 697.441 885.722C699.482 884.405 701.766 883.51 704.158 883.088C706.55 882.666 709.002 882.727 711.371 883.266C713.739 883.806 715.976 884.813 717.949 886.229L722.511 889.511L728.027 888.468C730.415 888.017 732.869 888.049 735.244 888.561C737.62 889.073 739.869 890.055 741.859 891.448C743.85 892.842 745.541 894.62 746.835 896.677C748.128 898.734 748.997 901.029 749.391 903.427L750.304 908.965L754.935 912.132C756.941 913.502 758.652 915.26 759.969 917.301C761.286 919.342 762.182 921.626 762.604 924.018C763.026 926.41 762.965 928.862 762.426 931.231C761.886 933.599 760.879 935.836 759.463 937.809L756.187 942.37L757.23 947.886C757.681 950.274 757.649 952.728 757.137 955.103C756.625 957.478 755.643 959.727 754.25 961.718C752.856 963.708 751.078 965.4 749.021 966.694C746.964 967.987 744.669 968.856 742.271 969.25L736.732 970.162L733.566 974.794C732.195 976.8 730.438 978.511 728.397 979.828C726.356 981.145 724.072 982.041 721.68 982.463C719.288 982.884 716.836 982.824 714.467 982.284C712.099 981.745 709.862 980.737 707.889 979.321L703.328 976.046L697.812 977.089C695.424 977.539 692.97 977.508 690.595 976.996C688.22 976.484 685.97 975.502 683.98 974.108C681.99 972.715 680.298 970.937 679.004 968.88C677.711 966.823 676.842 964.528 676.448 962.13L675.536 956.591L670.904 953.424C668.898 952.054 667.187 950.297 665.87 948.256C664.553 946.215 663.657 943.931 663.235 941.539C662.814 939.147 662.874 936.695 663.414 934.326C663.953 931.958 664.96 929.721 666.377 927.748L669.652 923.187L668.609 917.671C668.159 915.283 668.19 912.829 668.702 910.454C669.214 908.078 670.196 905.829 671.59 903.839C672.983 901.848 674.761 900.157 676.818 898.863C678.875 897.57 681.17 896.701 683.568 896.307L689.107 895.394L692.274 890.763L692.272 890.757ZM710.006 952.505C710.15 953.32 710.453 954.1 710.898 954.798C711.343 955.497 711.922 956.101 712.6 956.576C713.279 957.051 714.044 957.388 714.853 957.567C715.661 957.746 716.497 957.765 717.313 957.621C718.128 957.477 718.908 957.174 719.606 956.729C720.305 956.284 720.909 955.706 721.384 955.027C721.859 954.349 722.196 953.583 722.375 952.775C722.554 951.966 722.573 951.13 722.429 950.314C722.138 948.667 721.205 947.203 719.835 946.243C718.465 945.284 716.77 944.908 715.122 945.198C713.475 945.489 712.011 946.422 711.051 947.792C710.092 949.162 709.716 950.857 710.006 952.505ZM717.737 938.16C717.4 934.8 718.074 932.881 721.611 929.408C725.278 925.719 726.939 921.488 725.958 915.922C724.507 907.693 717.805 903.098 709.469 904.568C703.134 905.685 698.878 909.586 697.839 914.88C697.498 916.336 697.463 917.847 697.737 919.317C698.168 921.758 699.699 923.069 701.823 922.695C703.513 922.397 704.488 921.284 704.768 918.91C705.101 915.059 707.027 912.651 710.437 912.05C714.225 911.382 717.323 913.692 718.021 917.655C718.638 921.152 717.699 923.38 714.367 926.785C710.996 930.152 709.616 933.476 710.411 937.985L710.533 938.675C711.002 941.333 712.641 943.074 714.982 942.661C717.069 942.293 717.85 940.619 717.737 938.16Z" fill="white" fill-opacity="0.32"/>
</g>
<g clip-path="url(#clip4_1903_22)">
<path d="M1235.88 612.63C1237.25 610.624 1239.01 608.913 1241.05 607.596C1243.09 606.279 1245.38 605.383 1247.77 604.962C1250.16 604.54 1252.61 604.6 1254.98 605.14C1257.35 605.679 1259.59 606.687 1261.56 608.103L1266.12 611.384L1271.64 610.341C1274.03 609.891 1276.48 609.923 1278.86 610.435C1281.23 610.946 1283.48 611.928 1285.47 613.322C1287.46 614.716 1289.15 616.493 1290.45 618.55C1291.74 620.607 1292.61 622.902 1293 625.3L1293.91 630.839L1298.55 634.006C1300.55 635.376 1302.26 637.133 1303.58 639.174C1304.9 641.215 1305.79 643.499 1306.22 645.891C1306.64 648.283 1306.58 650.736 1306.04 653.104C1305.5 655.472 1304.49 657.709 1303.07 659.683L1299.8 664.244L1300.84 669.76C1301.29 672.147 1301.26 674.601 1300.75 676.977C1300.24 679.352 1299.25 681.601 1297.86 683.592C1296.47 685.582 1294.69 687.274 1292.63 688.567C1290.58 689.861 1288.28 690.73 1285.88 691.123L1280.34 692.036L1277.18 696.667C1275.81 698.673 1274.05 700.385 1272.01 701.702C1269.97 703.019 1267.68 703.914 1265.29 704.336C1262.9 704.758 1260.45 704.697 1258.08 704.158C1255.71 703.618 1253.47 702.611 1251.5 701.195L1246.94 697.92L1241.42 698.963C1239.04 699.413 1236.58 699.381 1234.21 698.869C1231.83 698.357 1229.58 697.376 1227.59 695.982C1225.6 694.588 1223.91 692.811 1222.62 690.753C1221.32 688.696 1220.45 686.401 1220.06 684.004L1219.15 678.465L1214.52 675.298C1212.51 673.928 1210.8 672.171 1209.48 670.129C1208.16 668.088 1207.27 665.805 1206.85 663.413C1206.42 661.02 1206.49 658.568 1207.02 656.2C1207.56 653.831 1208.57 651.595 1209.99 649.621L1213.26 645.06L1212.22 639.544C1211.77 637.156 1211.8 634.703 1212.31 632.327C1212.83 629.952 1213.81 627.703 1215.2 625.712C1216.59 623.722 1218.37 622.03 1220.43 620.737C1222.49 619.443 1224.78 618.574 1227.18 618.181L1232.72 617.268L1235.88 612.636L1235.88 612.63ZM1253.62 674.378C1253.76 675.194 1254.06 675.973 1254.51 676.672C1254.95 677.37 1255.53 677.974 1256.21 678.449C1256.89 678.925 1257.66 679.261 1258.46 679.441C1259.27 679.62 1260.11 679.638 1260.92 679.494C1261.74 679.35 1262.52 679.047 1263.22 678.602C1263.92 678.157 1264.52 677.579 1265 676.901C1265.47 676.222 1265.81 675.457 1265.99 674.648C1266.17 673.84 1266.18 673.004 1266.04 672.188C1265.75 670.541 1264.82 669.076 1263.45 668.117C1262.08 667.157 1260.38 666.782 1258.73 667.072C1257.09 667.362 1255.62 668.295 1254.66 669.666C1253.7 671.036 1253.33 672.731 1253.62 674.378ZM1261.35 660.034C1261.01 656.673 1261.69 654.755 1265.22 651.281C1268.89 647.593 1270.55 643.361 1269.57 637.796C1268.12 629.566 1261.42 624.971 1253.08 626.441C1246.75 627.558 1242.49 631.46 1241.45 636.753C1241.11 638.209 1241.07 639.72 1241.35 641.19C1241.78 643.631 1243.31 644.943 1245.43 644.568C1247.12 644.271 1248.1 643.157 1248.38 640.783C1248.71 636.933 1250.64 634.525 1254.05 633.924C1257.84 633.256 1260.93 635.566 1261.63 639.528C1262.25 643.025 1261.31 645.253 1257.98 648.658C1254.61 652.026 1253.23 655.35 1254.02 659.859L1254.14 660.548C1254.61 663.207 1256.25 664.948 1258.59 664.535C1260.68 664.167 1261.46 662.492 1261.35 660.034Z" fill="white" fill-opacity="0.32"/>
</g>
<g clip-path="url(#clip5_1903_22)">
<path d="M494.331 47.0926C495.701 45.0869 497.458 43.3753 499.5 42.0583C501.541 40.7414 503.824 39.8457 506.216 39.4239C508.609 39.0021 511.061 39.0627 513.429 39.6021C515.798 40.1416 518.034 41.1489 520.008 42.5651L524.57 45.8466L530.086 44.8035C532.474 44.3533 534.927 44.385 537.303 44.8969C539.678 45.4088 541.927 46.3905 543.918 47.7842C545.908 49.178 547.6 50.9557 548.893 53.0127C550.187 55.0698 551.056 57.3647 551.45 59.7626L552.362 65.3014L556.994 68.4682C558.999 69.8384 560.711 71.5957 562.028 73.6367C563.345 75.6778 564.241 77.9615 564.662 80.3536C565.084 82.7458 565.024 85.1981 564.484 87.5665C563.945 89.9349 562.937 92.1716 561.521 94.1451L558.246 98.7061L559.289 104.222C559.739 106.61 559.707 109.064 559.196 111.439C558.684 113.814 557.702 116.063 556.308 118.054C554.914 120.044 553.137 121.736 551.08 123.03C549.023 124.323 546.728 125.192 544.33 125.586L538.791 126.498L535.624 131.13C534.254 133.135 532.497 134.847 530.456 136.164C528.415 137.481 526.131 138.377 523.739 138.798C521.347 139.22 518.894 139.16 516.526 138.62C514.158 138.081 511.921 137.073 509.947 135.657L505.386 132.382L499.871 133.425C497.483 133.875 495.029 133.844 492.654 133.332C490.278 132.82 488.029 131.838 486.039 130.444C484.048 129.051 482.356 127.273 481.063 125.216C479.769 123.159 478.9 120.864 478.507 118.466L477.594 112.927L472.963 109.76C470.957 108.39 469.245 106.633 467.928 104.592C466.612 102.551 465.716 100.267 465.294 97.8749C464.872 95.4828 464.933 93.0305 465.472 90.6621C466.012 88.2937 467.019 86.057 468.435 84.0835L471.71 79.5225L470.667 74.0066C470.217 71.6188 470.249 69.165 470.761 66.7896C471.273 64.4142 472.254 62.1651 473.648 60.1747C475.042 58.1842 476.82 56.4925 478.877 55.199C480.934 53.9056 483.229 53.0365 485.626 52.6429L491.165 51.7303L494.332 47.0988L494.331 47.0926ZM512.065 108.841C512.209 109.656 512.512 110.436 512.957 111.134C513.402 111.833 513.98 112.437 514.659 112.912C515.337 113.387 516.102 113.724 516.911 113.903C517.72 114.082 518.556 114.1 519.371 113.957C520.187 113.813 520.966 113.51 521.665 113.065C522.363 112.62 522.967 112.042 523.443 111.363C523.918 110.685 524.254 109.919 524.434 109.111C524.613 108.302 524.631 107.466 524.487 106.65C524.197 105.003 523.264 103.539 521.894 102.579C520.523 101.62 518.828 101.244 517.181 101.534C515.534 101.825 514.069 102.758 513.11 104.128C512.15 105.498 511.775 107.193 512.065 108.841ZM519.795 94.4962C519.459 91.1357 520.133 89.2173 523.67 85.7437C527.336 82.0552 528.998 77.8236 528.017 72.2584C526.566 64.0286 519.863 59.4337 511.528 60.9035C505.193 62.0206 500.937 65.9219 499.897 71.2158C499.556 72.6717 499.522 74.1826 499.796 75.6526C500.226 78.0936 501.758 79.4054 503.882 79.0308C505.571 78.7329 506.547 77.6195 506.827 75.2455C507.16 71.3954 509.085 68.9873 512.495 68.386C516.284 67.718 519.381 70.0282 520.08 73.9909C520.696 77.4877 519.757 79.7155 516.425 83.1209C513.055 86.4882 511.675 89.812 512.47 94.3213L512.592 95.0107C513.06 97.6691 514.699 99.4102 517.041 98.9974C519.128 98.6294 519.909 96.9547 519.795 94.4962Z" fill="white" fill-opacity="0.32"/>
</g>
<g clip-path="url(#clip6_1903_22)">
<path d="M74.6643 950.565C76.9881 963.743 73.9815 977.305 66.3061 988.267C58.6307 999.228 46.9151 1006.69 33.7367 1009.02C20.5584 1011.34 6.99663 1008.33 -3.965 1000.66C-14.9266 992.982 -22.3903 981.266 -24.714 968.088C-27.0377 954.91 -24.0311 941.348 -16.3557 930.386C-8.68027 919.425 3.03528 911.961 16.2137 909.637C29.392 907.314 42.9538 910.32 53.9154 917.996C64.877 925.671 72.3406 937.387 74.6643 950.565ZM7.26825 949.852L12.3924 948.948C13.2496 948.797 13.809 947.975 13.7708 947.104C13.6114 942.931 15.8829 939.469 20.8642 938.591C25.1251 937.839 29.4013 939.282 30.3048 944.406C31.0003 948.35 28.9971 950.574 25.8126 953.979C22.168 957.753 19.4829 961.883 20.7341 967.599L20.9904 968.944C21.0688 969.35 21.3038 969.709 21.6447 969.944C21.9856 970.179 22.4051 970.27 22.8126 970.198L27.8499 969.31C28.2617 969.237 28.6278 969.004 28.8677 968.661C29.1075 968.319 29.2015 967.895 29.1288 967.483L29.0138 966.831C28.2275 962.371 29.6943 960.774 33.6597 956.495C36.9352 952.952 40.3163 949.064 39.1346 942.363C37.4798 932.978 28.7549 929.841 20.0779 931.371C12.2084 932.759 4.23346 937.943 5.50085 948.581C5.52772 948.783 5.59563 948.978 5.70043 949.153C5.80522 949.328 5.94468 949.479 6.11022 949.598C6.27576 949.717 6.46389 949.801 6.66304 949.845C6.86219 949.888 7.06814 949.891 7.26825 949.852ZM28.7655 987.324C32.5543 986.656 34.7252 983.75 34.1415 980.439C33.537 977.01 30.5033 975.06 26.7208 975.727C23.0935 976.367 20.8786 979.242 21.4832 982.671C22.0669 985.982 25.1382 987.963 28.7717 987.323L28.7655 987.324Z" fill="white" fill-opacity="0.32"/>
</g>
<g clip-path="url(#clip7_1903_22)">
<path d="M184.309 457.651C186.632 470.83 183.626 484.392 175.95 495.353C168.275 506.315 156.56 513.778 143.381 516.102C130.203 518.426 116.641 515.419 105.679 507.744C94.7178 500.068 87.2542 488.353 84.9305 475.175C82.6067 461.996 85.6133 448.434 93.2887 437.473C100.964 426.511 112.68 419.048 125.858 416.724C139.036 414.4 152.598 417.407 163.56 425.082C174.521 432.758 181.985 444.473 184.309 457.651ZM116.913 456.938L122.037 456.034C122.894 455.883 123.453 455.061 123.415 454.19C123.256 450.017 125.527 446.556 130.509 445.677C134.769 444.926 139.046 446.369 139.949 451.493C140.645 455.437 138.642 457.66 135.457 461.065C131.812 464.839 129.127 468.97 130.379 474.686L130.635 476.03C130.713 476.437 130.948 476.796 131.289 477.031C131.63 477.265 132.049 477.356 132.457 477.284L137.494 476.396C137.906 476.324 138.272 476.09 138.512 475.748C138.752 475.405 138.846 474.981 138.773 474.57L138.658 473.918C137.872 469.458 139.339 467.861 143.304 463.582C146.58 460.039 149.961 456.151 148.779 449.449C147.124 440.064 138.399 436.927 129.722 438.457C121.853 439.845 113.878 445.03 115.145 455.668C115.172 455.87 115.24 456.064 115.345 456.239C115.45 456.414 115.589 456.566 115.755 456.685C115.92 456.804 116.108 456.887 116.307 456.931C116.507 456.975 116.713 456.977 116.913 456.938ZM138.41 494.41C142.199 493.742 144.37 490.836 143.786 487.525C143.181 484.097 140.148 482.147 136.365 482.814C132.738 483.453 130.523 486.329 131.128 489.757C131.711 493.068 134.783 495.05 138.416 494.409L138.41 494.41Z" fill="white" fill-opacity="0.32"/>
</g>
<g clip-path="url(#clip8_1903_22)">
<path d="M1349.22 333.453C1351.54 346.632 1348.54 360.193 1340.86 371.155C1333.19 382.117 1321.47 389.58 1308.29 391.904C1295.11 394.228 1281.55 391.221 1270.59 383.546C1259.63 375.87 1252.17 364.155 1249.84 350.976C1247.52 337.798 1250.52 324.236 1258.2 313.275C1265.88 302.313 1277.59 294.849 1290.77 292.526C1303.95 290.202 1317.51 293.208 1328.47 300.884C1339.43 308.559 1346.9 320.275 1349.22 333.453ZM1281.82 332.74L1286.95 331.836C1287.81 331.685 1288.36 330.863 1288.33 329.992C1288.17 325.819 1290.44 322.357 1295.42 321.479C1299.68 320.728 1303.96 322.17 1304.86 327.294C1305.56 331.239 1303.55 333.462 1300.37 336.867C1296.72 340.641 1294.04 344.771 1295.29 350.488L1295.55 351.832C1295.62 352.238 1295.86 352.598 1296.2 352.832C1296.54 353.067 1296.96 353.158 1297.37 353.086L1302.41 352.198C1302.82 352.125 1303.18 351.892 1303.42 351.55C1303.66 351.207 1303.76 350.783 1303.68 350.371L1303.57 349.719C1302.78 345.26 1304.25 343.663 1308.22 339.383C1311.49 335.841 1314.87 331.953 1313.69 325.251C1312.04 315.866 1303.31 312.729 1294.63 314.259C1286.76 315.647 1278.79 320.831 1280.06 331.47C1280.08 331.672 1280.15 331.866 1280.26 332.041C1280.36 332.216 1280.5 332.367 1280.67 332.486C1280.83 332.605 1281.02 332.689 1281.22 332.733C1281.42 332.776 1281.62 332.779 1281.82 332.74ZM1303.32 370.212C1307.11 369.544 1309.28 366.638 1308.7 363.327C1308.09 359.899 1305.06 357.949 1301.28 358.616C1297.65 359.255 1295.43 362.131 1296.04 365.559C1296.62 368.87 1299.69 370.851 1303.33 370.211L1303.32 370.212Z" fill="white" fill-opacity="0.32"/>
</g>
<g clip-path="url(#clip9_1903_22)">
<path d="M1121.14 989.69C1123.46 1002.87 1120.46 1016.43 1112.78 1027.39C1105.11 1038.35 1093.39 1045.82 1080.21 1048.14C1067.03 1050.46 1053.47 1047.46 1042.51 1039.78C1031.55 1032.11 1024.09 1020.39 1021.76 1007.21C1019.44 994.034 1022.44 980.472 1030.12 969.511C1037.8 958.549 1049.51 951.086 1062.69 948.762C1075.87 946.438 1089.43 949.445 1100.39 957.12C1111.35 964.796 1118.82 976.511 1121.14 989.69ZM1053.74 988.976L1058.87 988.073C1059.73 987.921 1060.28 987.099 1060.25 986.228C1060.09 982.055 1062.36 978.594 1067.34 977.715C1071.6 976.964 1075.88 978.407 1076.78 983.531C1077.48 987.475 1075.47 989.698 1072.29 993.103C1068.64 996.877 1065.96 1001.01 1067.21 1006.72L1067.47 1008.07C1067.54 1008.47 1067.78 1008.83 1068.12 1009.07C1068.46 1009.3 1068.88 1009.39 1069.29 1009.32L1074.33 1008.43C1074.74 1008.36 1075.1 1008.13 1075.34 1007.79C1075.58 1007.44 1075.68 1007.02 1075.6 1006.61L1075.49 1005.96C1074.7 1001.5 1076.17 999.899 1080.14 995.62C1083.41 992.077 1086.79 988.189 1085.61 981.487C1083.96 972.102 1075.23 968.965 1066.55 970.495C1058.68 971.883 1050.71 977.068 1051.98 987.706C1052 987.908 1052.07 988.102 1052.18 988.277C1052.28 988.452 1052.42 988.604 1052.59 988.723C1052.75 988.842 1052.94 988.926 1053.14 988.969C1053.34 989.013 1053.54 989.015 1053.74 988.976ZM1075.24 1026.45C1079.03 1025.78 1081.2 1022.87 1080.62 1019.56C1080.01 1016.13 1076.98 1014.18 1073.2 1014.85C1069.57 1015.49 1067.35 1018.37 1067.96 1021.8C1068.54 1025.11 1071.61 1027.09 1075.25 1026.45L1075.24 1026.45Z" fill="white" fill-opacity="0.32"/>
</g>
<g clip-path="url(#clip10_1903_22)">
<path d="M401.14 999.69C403.464 1012.87 400.457 1026.43 392.782 1037.39C385.106 1048.35 373.391 1055.82 360.212 1058.14C347.034 1060.46 333.472 1057.46 322.51 1049.78C311.549 1042.11 304.085 1030.39 301.762 1017.21C299.438 1004.03 302.444 990.472 310.12 979.511C317.795 968.549 329.511 961.086 342.689 958.762C355.868 956.438 369.429 959.445 380.391 967.12C391.353 974.796 398.816 986.511 401.14 999.69ZM333.744 998.976L338.868 998.073C339.725 997.921 340.285 997.099 340.246 996.228C340.087 992.055 342.358 988.594 347.34 987.715C351.601 986.964 355.877 988.407 356.78 993.531C357.476 997.475 355.473 999.698 352.288 1003.1C348.644 1006.88 345.958 1011.01 347.21 1016.72L347.466 1018.07C347.544 1018.47 347.779 1018.83 348.12 1019.07C348.461 1019.3 348.881 1019.39 349.288 1019.32L354.325 1018.43C354.737 1018.36 355.103 1018.13 355.343 1017.79C355.583 1017.44 355.677 1017.02 355.604 1016.61L355.489 1015.96C354.703 1011.5 356.17 1009.9 360.135 1005.62C363.411 1002.08 366.792 998.189 365.61 991.487C363.955 982.102 355.23 978.965 346.553 980.495C338.684 981.883 330.709 987.068 331.976 997.706C332.003 997.908 332.071 998.102 332.176 998.277C332.281 998.452 332.42 998.604 332.586 998.723C332.751 998.842 332.939 998.926 333.139 998.969C333.338 999.013 333.544 999.015 333.744 998.976ZM355.241 1036.45C359.03 1035.78 361.201 1032.87 360.617 1029.56C360.012 1026.13 356.979 1024.18 353.196 1024.85C349.569 1025.49 347.354 1028.37 347.959 1031.8C348.542 1035.11 351.614 1037.09 355.247 1036.45L355.241 1036.45Z" fill="white" fill-opacity="0.32"/>
</g>
<g clip-path="url(#clip11_1903_22)">
<path d="M57.8699 735.972C46.3388 738.005 34.4723 735.374 24.8809 728.658C15.2895 721.942 8.75879 711.691 6.72555 700.16C4.69231 688.629 7.32305 676.762 14.039 667.171C20.755 657.579 31.0061 651.049 42.5372 649.016C54.0683 646.982 65.9348 649.613 75.5262 656.329C85.1177 663.045 91.6483 673.296 93.6816 684.827C95.7148 696.358 93.0841 708.225 86.3681 717.816C79.6521 727.408 69.401 733.938 57.8699 735.972ZM58.9651 742.183C72.1435 739.859 83.859 732.395 91.5344 721.434C99.2099 710.472 102.216 696.91 99.8927 683.732C97.569 670.554 90.1054 658.838 79.1438 651.163C68.1821 643.487 54.6204 640.481 41.442 642.804C28.2636 645.128 16.5481 652.592 8.87268 663.553C1.19726 674.515 -1.8093 688.077 0.514407 701.255C2.83811 714.433 10.3017 726.149 21.2634 733.824C32.225 741.5 45.7867 744.506 58.9651 742.183Z" fill="white" fill-opacity="0.32"/>
<path d="M30.7292 681.748C30.7561 681.95 30.824 682.145 30.9288 682.32C31.0336 682.495 31.173 682.646 31.3386 682.765C31.5041 682.884 31.6923 682.968 31.8914 683.011C32.0906 683.055 32.2965 683.057 32.4966 683.018L37.6208 682.115C38.4779 681.964 39.0374 681.141 38.9992 680.271C38.8397 676.098 41.1112 672.636 46.0926 671.758C50.3534 671.006 54.6297 672.449 55.5332 677.573C56.2287 681.517 54.2255 683.74 51.041 687.146C47.3964 690.92 44.7112 695.05 45.9625 700.766L46.2188 702.111C46.2972 702.517 46.5322 702.876 46.8731 703.111C47.214 703.346 47.6334 703.437 48.041 703.365L53.0782 702.477C53.4901 702.404 53.8562 702.171 54.096 701.828C54.3359 701.486 54.4298 701.062 54.3572 700.65L54.2422 699.998C53.4559 695.538 54.9226 693.941 58.888 689.662C62.1635 686.119 65.5447 682.231 64.363 675.53C62.7081 666.144 53.9832 663.008 45.3063 664.538C37.4367 665.925 29.4618 671.11 30.7292 681.748ZM46.7116 715.838C47.2953 719.148 50.3665 721.13 54.0001 720.489C57.7826 719.822 59.9536 716.916 59.3699 713.606C58.7653 710.177 55.7317 708.227 51.9491 708.894C48.3218 709.534 46.107 712.409 46.7116 715.838Z" fill="white" fill-opacity="0.32"/>
</g>
<g clip-path="url(#clip12_1903_22)">
<path d="M1201.43 212.979C1189.9 215.012 1178.04 212.381 1168.45 205.665C1158.85 198.949 1152.32 188.698 1150.29 177.167C1148.26 165.636 1150.89 153.77 1157.6 144.178C1164.32 134.587 1174.57 128.056 1186.1 126.023C1197.63 123.99 1209.5 126.62 1219.09 133.336C1228.68 140.052 1235.21 150.303 1237.25 161.835C1239.28 173.366 1236.65 185.232 1229.93 194.824C1223.22 204.415 1212.97 210.946 1201.43 212.979ZM1202.53 219.19C1215.71 216.866 1227.42 209.403 1235.1 198.441C1242.77 187.479 1245.78 173.918 1243.46 160.739C1241.13 147.561 1233.67 135.845 1222.71 128.17C1211.75 120.495 1198.19 117.488 1185.01 119.812C1171.83 122.135 1160.11 129.599 1152.44 140.561C1144.76 151.522 1141.76 165.084 1144.08 178.262C1146.4 191.441 1153.87 203.156 1164.83 210.832C1175.79 218.507 1189.35 221.514 1202.53 219.19Z" fill="white" fill-opacity="0.32"/>
<path d="M1174.29 158.756C1174.32 158.958 1174.39 159.152 1174.49 159.327C1174.6 159.502 1174.74 159.653 1174.9 159.772C1175.07 159.891 1175.26 159.975 1175.46 160.019C1175.66 160.062 1175.86 160.065 1176.06 160.026L1181.19 159.122C1182.04 158.971 1182.6 158.149 1182.56 157.278C1182.4 153.105 1184.68 149.643 1189.66 148.765C1193.92 148.014 1198.19 149.456 1199.1 154.58C1199.79 158.525 1197.79 160.748 1194.61 164.153C1190.96 167.927 1188.28 172.057 1189.53 177.774L1189.78 179.118C1189.86 179.524 1190.1 179.884 1190.44 180.118C1190.78 180.353 1191.2 180.444 1191.61 180.372L1196.64 179.484C1197.06 179.411 1197.42 179.178 1197.66 178.836C1197.9 178.493 1197.99 178.069 1197.92 177.657L1197.81 177.005C1197.02 172.546 1198.49 170.949 1202.45 166.669C1205.73 163.127 1209.11 159.239 1207.93 152.537C1206.27 143.152 1197.55 140.015 1188.87 141.545C1181 142.933 1173.03 148.117 1174.29 158.756ZM1190.28 192.845C1190.86 196.156 1193.93 198.137 1197.57 197.497C1201.35 196.83 1203.52 193.924 1202.93 190.613C1202.33 187.185 1199.3 185.235 1195.51 185.902C1191.89 186.541 1189.67 189.417 1190.28 192.845Z" fill="white" fill-opacity="0.32"/>
</g>
<g clip-path="url(#clip13_1903_22)">
<path d="M1406.83 830.091C1395.3 832.124 1383.43 829.493 1373.84 822.777C1364.25 816.061 1357.72 805.81 1355.69 794.279C1353.65 782.748 1356.29 770.881 1363 761.29C1369.72 751.699 1379.97 745.168 1391.5 743.135C1403.03 741.101 1414.9 743.732 1424.49 750.448C1434.08 757.164 1440.61 767.415 1442.64 778.946C1444.68 790.477 1442.05 802.344 1435.33 811.935C1428.61 821.527 1418.36 828.057 1406.83 830.091ZM1407.93 836.302C1421.11 833.978 1432.82 826.514 1440.5 815.553C1448.17 804.591 1451.18 791.03 1448.85 777.851C1446.53 764.673 1439.07 752.957 1428.11 745.282C1417.14 737.606 1403.58 734.6 1390.4 736.924C1377.23 739.247 1365.51 746.711 1357.83 757.672C1350.16 768.634 1347.15 782.196 1349.48 795.374C1351.8 808.553 1359.26 820.268 1370.23 827.944C1381.19 835.619 1394.75 838.626 1407.93 836.302Z" fill="white" fill-opacity="0.32"/>
<path d="M1379.69 775.867C1379.72 776.069 1379.79 776.264 1379.89 776.439C1380 776.614 1380.14 776.765 1380.3 776.884C1380.47 777.003 1380.65 777.087 1380.85 777.131C1381.05 777.174 1381.26 777.177 1381.46 777.138L1386.58 776.234C1387.44 776.083 1388 775.261 1387.96 774.39C1387.8 770.217 1390.07 766.755 1395.05 765.877C1399.32 765.125 1403.59 766.568 1404.5 771.692C1405.19 775.636 1403.19 777.86 1400 781.265C1396.36 785.039 1393.67 789.169 1394.92 794.885L1395.18 796.23C1395.26 796.636 1395.49 796.996 1395.84 797.23C1396.18 797.465 1396.6 797.556 1397 797.484L1402.04 796.596C1402.45 796.523 1402.82 796.29 1403.06 795.947C1403.3 795.605 1403.39 795.181 1403.32 794.769L1403.2 794.117C1402.42 789.657 1403.88 788.06 1407.85 783.781C1411.13 780.238 1414.51 776.35 1413.32 769.649C1411.67 760.264 1402.95 757.127 1394.27 758.657C1386.4 760.045 1378.42 765.229 1379.69 775.867ZM1395.67 809.957C1396.26 813.268 1399.33 815.249 1402.96 814.609C1406.74 813.942 1408.92 811.036 1408.33 807.725C1407.73 804.296 1404.69 802.346 1400.91 803.013C1397.28 803.653 1395.07 806.528 1395.67 809.957Z" fill="white" fill-opacity="0.32"/>
</g>
<g clip-path="url(#clip14_1903_22)">
<path d="M478.981 931.973C467.449 934.006 455.583 931.375 445.992 924.659C436.4 917.943 429.869 907.692 427.836 896.161C425.803 884.63 428.434 872.763 435.15 863.172C441.866 853.58 452.117 847.05 463.648 845.017C475.179 842.983 487.045 845.614 496.637 852.33C506.228 859.046 512.759 869.297 514.792 880.828C516.825 892.359 514.195 904.226 507.479 913.817C500.763 923.409 490.512 929.939 478.981 931.973ZM480.076 938.184C493.254 935.86 504.97 928.396 512.645 917.435C520.321 906.473 523.327 892.911 521.003 879.733C518.68 866.555 511.216 854.839 500.254 847.164C489.293 839.488 475.731 836.482 462.553 838.805C449.374 841.129 437.659 848.593 429.983 859.554C422.308 870.516 419.301 884.078 421.625 897.256C423.949 910.434 431.412 922.15 442.374 929.825C453.336 937.501 466.897 940.507 480.076 938.184Z" fill="white" fill-opacity="0.32"/>
<path d="M451.84 877.749C451.867 877.951 451.935 878.146 452.039 878.321C452.144 878.495 452.284 878.647 452.449 878.766C452.615 878.885 452.803 878.969 453.002 879.012C453.201 879.056 453.407 879.058 453.607 879.019L458.731 878.116C459.589 877.965 460.148 877.142 460.11 876.272C459.95 872.099 462.222 868.637 467.203 867.759C471.464 867.007 475.74 868.45 476.644 873.574C477.339 877.518 475.336 879.741 472.152 883.146C468.507 886.921 465.822 891.051 467.073 896.767L467.329 898.112C467.408 898.518 467.643 898.877 467.984 899.112C468.325 899.347 468.744 899.438 469.152 899.366L474.189 898.478C474.601 898.405 474.967 898.172 475.207 897.829C475.447 897.487 475.54 897.063 475.468 896.651L475.353 895.999C474.567 891.539 476.033 889.942 479.999 885.663C483.274 882.12 486.655 878.232 485.474 871.53C483.819 862.145 475.094 859.009 466.417 860.539C458.547 861.926 450.572 867.111 451.84 877.749ZM467.822 911.839C468.406 915.149 471.477 917.131 475.111 916.49C478.893 915.823 481.064 912.917 480.481 909.607C479.876 906.178 476.842 904.228 473.06 904.895C469.432 905.535 467.218 908.41 467.822 911.839Z" fill="white" fill-opacity="0.32"/>
</g>
<g clip-path="url(#clip15_1903_22)">
<path d="M241.257 279.93C229.726 281.963 217.859 279.332 208.268 272.616C198.676 265.9 192.146 255.649 190.112 244.118C188.079 232.587 190.71 220.72 197.426 211.129C204.142 201.537 214.393 195.007 225.924 192.974C237.455 190.94 249.322 193.571 258.913 200.287C268.504 207.003 275.035 217.254 277.068 228.785C279.102 240.316 276.471 252.183 269.755 261.774C263.039 271.366 252.788 277.896 241.257 279.93ZM242.352 286.141C255.53 283.817 267.246 276.353 274.921 265.392C282.597 254.43 285.603 240.868 283.279 227.69C280.956 214.512 273.492 202.796 262.531 195.121C251.569 187.445 238.007 184.439 224.829 186.762C211.65 189.086 199.935 196.55 192.259 207.511C184.584 218.473 181.577 232.035 183.901 245.213C186.225 258.391 193.689 270.107 204.65 277.782C215.612 285.458 229.173 288.464 242.352 286.141Z" fill="white" fill-opacity="0.32"/>
<path d="M214.116 225.706C214.143 225.908 214.211 226.103 214.316 226.278C214.42 226.453 214.56 226.604 214.725 226.723C214.891 226.842 215.079 226.926 215.278 226.969C215.477 227.013 215.683 227.015 215.883 226.976L221.008 226.073C221.865 225.922 222.424 225.099 222.386 224.229C222.226 220.056 224.498 216.594 229.479 215.716C233.74 214.964 238.016 216.407 238.92 221.531C239.615 225.475 237.612 227.699 234.428 231.104C230.783 234.878 228.098 239.008 229.349 244.724L229.606 246.069C229.684 246.475 229.919 246.834 230.26 247.069C230.601 247.304 231.02 247.395 231.428 247.323L236.465 246.435C236.877 246.362 237.243 246.129 237.483 245.786C237.723 245.444 237.817 245.02 237.744 244.608L237.629 243.956C236.843 239.496 238.309 237.899 242.275 233.62C245.55 230.077 248.931 226.189 247.75 219.488C246.095 210.102 237.37 206.966 228.693 208.496C220.823 209.883 212.849 215.068 214.116 225.706ZM230.098 259.796C230.682 263.106 233.753 265.088 237.387 264.447C241.169 263.78 243.34 260.874 242.757 257.564C242.152 254.135 239.118 252.185 235.336 252.852C231.709 253.492 229.494 256.367 230.098 259.796Z" fill="white" fill-opacity="0.32"/>
</g>
<path d="M209.265 876.779C209.292 876.981 209.359 877.176 209.464 877.35C209.569 877.525 209.708 877.677 209.874 877.796C210.04 877.915 210.228 877.999 210.427 878.042C210.626 878.086 210.832 878.088 211.032 878.049L216.156 877.146C217.013 876.995 217.573 876.172 217.535 875.302C217.375 871.128 219.647 867.667 224.628 866.788C228.889 866.037 233.165 867.48 234.069 872.604C234.764 876.548 232.761 878.771 229.576 882.176C225.932 885.951 223.247 890.081 224.498 895.797L224.754 897.142C224.833 897.548 225.068 897.907 225.408 898.142C225.749 898.376 226.169 898.468 226.576 898.396L231.614 897.507C232.025 897.435 232.392 897.202 232.631 896.859C232.871 896.517 232.965 896.093 232.893 895.681L232.778 895.029C231.991 890.569 233.458 888.972 237.423 884.693C240.699 881.15 244.08 877.262 242.898 870.56C241.244 861.175 232.519 858.039 223.842 859.569C215.972 860.956 207.997 866.141 209.265 876.779ZM225.247 910.869C225.831 914.179 228.902 916.161 232.536 915.52C236.318 914.853 238.489 911.947 237.905 908.637C237.301 905.208 234.267 903.258 230.485 903.925C226.857 904.565 224.642 907.44 225.247 910.869Z" fill="white" fill-opacity="0.32"/>
<path d="M1342.82 501.272C1342.85 501.474 1342.91 501.669 1343.02 501.844C1343.12 502.018 1343.26 502.17 1343.43 502.289C1343.59 502.408 1343.78 502.492 1343.98 502.535C1344.18 502.579 1344.39 502.581 1344.59 502.542L1349.71 501.639C1350.57 501.488 1351.13 500.665 1351.09 499.795C1350.93 495.622 1353.2 492.16 1358.18 491.282C1362.44 490.53 1366.72 491.973 1367.62 497.097C1368.32 501.041 1366.32 503.264 1363.13 506.669C1359.49 510.444 1356.8 514.574 1358.05 520.29L1358.31 521.635C1358.39 522.041 1358.62 522.4 1358.96 522.635C1359.3 522.87 1359.72 522.961 1360.13 522.889L1365.17 522.001C1365.58 521.928 1365.95 521.695 1366.19 521.352C1366.43 521.01 1366.52 520.586 1366.45 520.174L1366.33 519.522C1365.55 515.062 1367.01 513.465 1370.98 509.186C1374.25 505.643 1377.64 501.755 1376.45 495.053C1374.8 485.668 1366.07 482.532 1357.4 484.062C1349.53 485.449 1341.55 490.634 1342.82 501.272ZM1358.8 535.362C1359.39 538.672 1362.46 540.654 1366.09 540.013C1369.87 539.346 1372.04 536.44 1371.46 533.13C1370.86 529.701 1367.82 527.751 1364.04 528.418C1360.41 529.058 1358.2 531.933 1358.8 535.362Z" fill="white" fill-opacity="0.32"/>
<path d="M751.663 34.7058C751.69 34.9078 751.758 35.1023 751.863 35.2772C751.968 35.452 752.107 35.6036 752.273 35.7226C752.438 35.8415 752.626 35.9254 752.826 35.969C753.025 36.0126 753.231 36.0149 753.431 35.976L758.555 35.0724C759.412 34.9213 759.972 34.099 759.933 33.2283C759.774 29.0553 762.045 25.5935 767.027 24.7152C771.288 23.9638 775.564 25.4065 776.467 30.5307C777.163 34.4748 775.16 36.698 771.975 40.103C768.331 43.8773 765.645 48.0076 766.897 53.7237L767.153 55.0683C767.231 55.4746 767.466 55.8339 767.807 56.0685C768.148 56.3031 768.568 56.3943 768.975 56.3224L774.012 55.4342C774.424 55.3616 774.79 55.1284 775.03 54.7858C775.27 54.4433 775.364 54.0195 775.291 53.6076L775.176 52.9555C774.39 48.4959 775.857 46.8987 779.822 42.6196C783.098 39.0768 786.479 35.1889 785.297 28.487C783.642 19.102 774.917 15.9653 766.24 17.4953C758.371 18.8829 750.396 24.0676 751.663 34.7058ZM767.646 68.7954C768.229 72.1059 771.301 74.0876 774.934 73.4469C778.717 72.78 780.888 69.8739 780.304 66.5634C779.699 63.1348 776.666 61.1849 772.883 61.8518C769.256 62.4914 767.041 65.3668 767.646 68.7954Z" fill="white" fill-opacity="0.32"/>
<path d="M1295.27 940.706C1295.3 940.908 1295.37 941.102 1295.47 941.277C1295.58 941.452 1295.72 941.604 1295.88 941.723C1296.05 941.842 1296.24 941.925 1296.44 941.969C1296.64 942.013 1296.84 942.015 1297.04 941.976L1302.17 941.072C1303.02 940.921 1303.58 940.099 1303.54 939.228C1303.39 935.055 1305.66 931.593 1310.64 930.715C1314.9 929.964 1319.18 931.406 1320.08 936.531C1320.77 940.475 1318.77 942.698 1315.59 946.103C1311.94 949.877 1309.26 954.008 1310.51 959.724L1310.76 961.068C1310.84 961.475 1311.08 961.834 1311.42 962.069C1311.76 962.303 1312.18 962.394 1312.59 962.322L1317.62 961.434C1318.04 961.362 1318.4 961.128 1318.64 960.786C1318.88 960.443 1318.98 960.019 1318.9 959.608L1318.79 958.955C1318 954.496 1319.47 952.899 1323.43 948.62C1326.71 945.077 1330.09 941.189 1328.91 934.487C1327.25 925.102 1318.53 921.965 1309.85 923.495C1301.98 924.883 1294.01 930.068 1295.27 940.706ZM1311.26 974.795C1311.84 978.106 1314.91 980.088 1318.55 979.447C1322.33 978.78 1324.5 975.874 1323.92 972.563C1323.31 969.135 1320.28 967.185 1316.49 967.852C1312.87 968.491 1310.65 971.367 1311.26 974.795Z" fill="white" fill-opacity="0.32"/>
<path d="M896.976 869.706C897.003 869.908 897.071 870.102 897.176 870.277C897.281 870.452 897.42 870.604 897.586 870.723C897.751 870.842 897.939 870.925 898.139 870.969C898.338 871.013 898.544 871.015 898.744 870.976L903.868 870.072C904.725 869.921 905.285 869.099 905.246 868.228C905.087 864.055 907.358 860.593 912.34 859.715C916.601 858.964 920.877 860.406 921.78 865.531C922.476 869.475 920.473 871.698 917.288 875.103C913.644 878.877 910.958 883.008 912.21 888.724L912.466 890.068C912.544 890.475 912.779 890.834 913.12 891.069C913.461 891.303 913.881 891.394 914.288 891.322L919.325 890.434C919.737 890.362 920.103 890.128 920.343 889.786C920.583 889.443 920.677 889.019 920.604 888.608L920.489 887.955C919.703 883.496 921.17 881.899 925.135 877.62C928.411 874.077 931.792 870.189 930.61 863.487C928.955 854.102 920.23 850.965 911.553 852.495C903.684 853.883 895.709 859.068 896.976 869.706ZM912.959 903.795C913.542 907.106 916.614 909.088 920.247 908.447C924.03 907.78 926.201 904.874 925.617 901.563C925.012 898.135 921.979 896.185 918.196 896.852C914.569 897.491 912.354 900.367 912.959 903.795Z" fill="white" fill-opacity="0.32"/>
<path d="M308.235 29.7058C308.262 29.9078 308.33 30.1023 308.435 30.2772C308.54 30.452 308.679 30.6036 308.845 30.7226C309.01 30.8415 309.198 30.9254 309.398 30.969C309.597 31.0126 309.803 31.0149 310.003 30.976L315.127 30.0724C315.984 29.9213 316.544 29.099 316.505 28.2283C316.346 24.0553 318.617 20.5935 323.599 19.7152C327.86 18.9638 332.136 20.4065 333.039 25.5307C333.735 29.4748 331.732 31.698 328.547 35.103C324.903 38.8773 322.217 43.0076 323.469 48.7237L323.725 50.0683C323.803 50.4746 324.038 50.8339 324.379 51.0685C324.72 51.3031 325.14 51.3943 325.547 51.3224L330.584 50.4342C330.996 50.3616 331.362 50.1284 331.602 49.7858C331.842 49.4433 331.936 49.0195 331.863 48.6076L331.748 47.9555C330.962 43.4959 332.429 41.8987 336.394 37.6196C339.67 34.0768 343.051 30.1889 341.869 23.487C340.214 14.102 331.489 10.9653 322.812 12.4953C314.943 13.8829 306.968 19.0676 308.235 29.7058ZM324.218 63.7954C324.801 67.1059 327.873 69.0876 331.506 68.4469C335.289 67.78 337.46 64.8739 336.876 61.5634C336.271 58.1348 333.238 56.1849 329.455 56.8518C325.828 57.4914 323.613 60.3668 324.218 63.7954Z" fill="white" fill-opacity="0.32"/>
<path d="M-10.0237 280.043C-9.9968 280.245 -9.92888 280.44 -9.82409 280.615C-9.71929 280.789 -9.57984 280.941 -9.41429 281.06C-9.24875 281.179 -9.06062 281.263 -8.86147 281.306C-8.66233 281.35 -8.45637 281.352 -8.25627 281.313L-3.13207 280.41C-2.27493 280.259 -1.71547 279.436 -1.75371 278.566C-1.91315 274.393 0.358364 270.931 5.3397 270.053C9.60055 269.301 13.8768 270.744 14.7803 275.868C15.4758 279.812 13.4726 282.035 10.2881 285.44C6.64353 289.215 3.95835 293.345 5.20961 299.061L5.4659 300.406C5.54428 300.812 5.77927 301.171 6.12017 301.406C6.46108 301.641 6.88056 301.732 7.28811 301.66L12.3253 300.772C12.7372 300.699 13.1033 300.466 13.3431 300.123C13.583 299.781 13.6769 299.357 13.6043 298.945L13.4893 298.293C12.703 293.833 14.1697 292.236 18.1351 287.957C21.4107 284.414 24.7918 280.526 23.6101 273.824C21.9553 264.439 13.2303 261.303 4.55338 262.833C-3.31615 264.22 -11.2911 269.405 -10.0237 280.043ZM5.95868 314.133C6.54242 317.443 9.61366 319.425 13.2472 318.784C17.0298 318.117 19.2007 315.211 18.617 311.901C18.0124 308.472 14.9788 306.522 11.1962 307.189C7.56894 307.829 5.35413 310.704 5.95868 314.133Z" fill="white" fill-opacity="0.32"/>
<g clip-path="url(#clip16_1903_22)">
<path d="M89.1376 94.9679C91.2246 94.6 92.0052 92.9253 91.8919 90.4668C91.5555 87.1063 92.2291 85.1879 95.7728 81.7131C99.4327 78.0258 101.095 73.7941 100.113 68.229C98.6621 59.9992 91.96 55.4043 83.6246 56.8741C77.2893 57.9912 73.0331 61.8925 71.994 67.1863C71.653 68.6423 71.6184 70.1532 71.8926 71.6232C72.323 74.0641 73.8544 75.376 75.9786 75.0014C77.668 74.7035 78.6436 73.5901 78.9231 71.216C79.2561 67.366 81.1818 64.9579 84.5918 64.3566C88.3806 63.6885 91.4777 65.9987 92.1764 69.9614C92.793 73.4583 91.8538 75.6861 88.522 79.0915C85.1515 82.4588 83.7715 85.7826 84.5666 90.2919L84.6882 90.9813C85.1569 93.6397 86.796 95.3808 89.1376 94.9679Z" fill="white" fill-opacity="0.32"/>
<path d="M95.1835 48.5152L88.4292 43.6606L92.1057 38.5421L96.6667 41.8174L102.183 40.7744C104.57 40.3241 107.024 40.3559 109.4 40.8678C111.775 41.3796 114.024 42.3613 116.015 43.7551C118.005 45.1488 119.697 46.9265 120.99 48.9836C122.284 51.0406 123.153 53.3356 123.546 55.7334L124.459 61.2723L129.09 64.4391C131.096 65.8092 132.808 67.5665 134.125 69.6075C135.442 71.6486 136.337 73.9323 136.759 76.3245C137.181 78.7166 137.12 81.1689 136.581 83.5373C136.041 85.9057 135.034 88.1424 133.618 90.1159L130.343 94.6769L131.386 100.193C131.836 102.581 131.804 105.034 131.292 107.41C130.78 109.785 129.799 112.034 128.405 114.025C127.011 116.015 125.234 117.707 123.176 119C121.119 120.294 118.824 121.163 116.427 121.556L110.888 122.469L107.721 127.101C106.351 129.106 104.594 130.818 102.552 132.135C100.511 133.452 98.2277 134.347 95.8355 134.769C93.4434 135.191 90.9911 135.13 88.6227 134.591C86.2543 134.052 84.0176 133.044 82.0441 131.628L77.4831 128.353L71.9672 129.396C69.5794 129.846 67.1256 129.814 64.7502 129.302C62.3748 128.791 60.1258 127.809 58.1353 126.415C56.1448 125.021 54.4531 123.244 53.1597 121.187C51.8662 119.13 50.9971 116.835 50.6035 114.437L49.6909 108.898L45.0594 105.731C43.0537 104.361 41.3421 102.604 40.0252 100.563C38.7082 98.5216 37.8126 96.2379 37.3908 93.8458C36.969 91.4536 37.0295 89.0013 37.569 86.6329C38.1084 84.2645 39.1158 82.0278 40.5319 80.0543L43.8072 75.4933L42.7641 69.9775C42.3139 67.5896 42.3457 65.1358 42.8575 62.7604C43.3694 60.385 44.3511 58.136 45.7449 56.1455C47.1386 54.155 48.9163 52.4633 50.9733 51.1699C53.0304 49.8764 55.3253 49.0073 57.7232 48.6137L63.262 47.7011L66.4288 43.0696C67.799 41.0639 69.5563 39.3523 71.5973 38.0354C73.6384 36.7184 75.9221 35.8228 78.3142 35.401C80.7064 34.9792 83.1587 35.0398 85.5271 35.5792C87.8955 36.1186 90.1322 37.126 92.1057 38.5421L88.4292 43.6606C87.1384 42.734 85.6754 42.0749 84.1262 41.7219C82.5771 41.3689 80.9729 41.3292 79.4082 41.6051C77.8434 41.881 76.3497 42.467 75.0146 43.3285C73.6796 44.1901 72.5303 45.3098 71.6342 46.622L66.9539 53.4928L58.7376 54.8391C57.1704 55.0974 55.6707 55.6663 54.3265 56.5124C52.9822 57.3585 51.8207 58.4647 50.91 59.766C49.9993 61.0673 49.3578 62.5375 49.0233 64.0903C48.6889 65.643 48.668 67.2469 48.9621 68.8077L50.505 76.9765L45.6503 83.7308C44.7238 85.0216 44.0647 86.4846 43.7117 88.0338C43.3587 89.5829 43.319 91.1871 43.5949 92.7518C43.8708 94.3165 44.4568 95.8103 45.3183 97.1454C46.1799 98.4804 47.2996 99.6297 48.6117 100.526L55.4826 105.206L56.8289 113.422C57.0872 114.99 57.6561 116.489 58.5022 117.834C59.3483 119.178 60.4545 120.339 61.7558 121.25C63.0571 122.161 64.5273 122.802 66.08 123.137C67.6328 123.471 69.2367 123.492 70.7975 123.198L78.9663 121.655L85.7206 126.51C87.0114 127.436 88.4744 128.095 90.0235 128.448C91.5727 128.801 93.1768 128.841 94.7416 128.565C96.3063 128.289 97.8001 127.703 99.1352 126.842C100.47 125.98 101.62 124.86 102.516 123.548L107.196 116.677L115.412 115.331C116.979 115.073 118.479 114.504 119.823 113.658C121.168 112.812 122.329 111.706 123.24 110.404C124.151 109.103 124.792 107.633 125.126 106.08C125.461 104.527 125.482 102.923 125.188 101.362L123.645 93.1937L128.499 86.4394C129.426 85.1486 130.085 83.6856 130.438 82.1365C130.791 80.5873 130.831 78.9832 130.555 77.4184C130.279 75.8537 129.693 74.3599 128.831 73.0248C127.97 71.6898 126.85 70.5405 125.538 69.6445L118.667 64.9641L117.321 56.7478C117.063 55.1807 116.494 53.6809 115.648 52.3367C114.801 50.9924 113.695 49.8309 112.394 48.9202C111.093 48.0095 109.622 47.3681 108.07 47.0336C106.517 46.6991 104.913 46.6783 103.352 46.9724L95.1835 48.5152Z" fill="white" fill-opacity="0.32"/>
<path d="M84.1554 104.813C83.8649 103.165 84.2407 101.47 85.2002 100.1C86.1596 98.7298 87.624 97.7968 89.2713 97.5064C90.9186 97.2159 92.6139 97.5917 93.9841 98.5512C95.3543 99.5106 96.2872 100.975 96.5777 102.622C96.8681 104.27 96.4923 105.965 95.5329 107.335C94.5735 108.705 93.109 109.638 91.4617 109.929C89.8144 110.219 88.1192 109.843 86.749 108.884C85.3788 107.924 84.4459 106.46 84.1554 104.813Z" fill="white" fill-opacity="0.32"/>
</g>
<g clip-path="url(#clip17_1903_22)">
<path d="M1148.95 818.813C1151.04 818.445 1151.82 816.77 1151.7 814.312C1151.37 810.951 1152.04 809.033 1155.58 805.558C1159.24 801.871 1160.91 797.639 1159.93 792.074C1158.47 783.844 1151.77 779.25 1143.44 780.719C1137.1 781.836 1132.85 785.738 1131.81 791.032C1131.47 792.487 1131.43 793.998 1131.7 795.468C1132.14 797.909 1133.67 799.221 1135.79 798.847C1137.48 798.549 1138.46 797.435 1138.74 795.061C1139.07 791.211 1140.99 788.803 1144.4 788.202C1148.19 787.534 1151.29 789.844 1151.99 793.807C1152.61 797.304 1151.67 799.531 1148.33 802.937C1144.96 806.304 1143.58 809.628 1144.38 814.137L1144.5 814.827C1144.97 817.485 1146.61 819.226 1148.95 818.813Z" fill="white" fill-opacity="0.32"/>
<path d="M1155 772.36L1148.24 767.506L1151.92 762.387L1156.48 765.663L1161.99 764.62C1164.38 764.169 1166.84 764.201 1169.21 764.713C1171.59 765.225 1173.84 766.207 1175.83 767.6C1177.82 768.994 1179.51 770.772 1180.8 772.829C1182.1 774.886 1182.96 777.181 1183.36 779.579L1184.27 785.117L1188.9 788.284C1190.91 789.654 1192.62 791.412 1193.94 793.453C1195.25 795.494 1196.15 797.778 1196.57 800.17C1196.99 802.562 1196.93 805.014 1196.39 807.383C1195.85 809.751 1194.85 811.988 1193.43 813.961L1190.15 818.522L1191.2 824.038C1191.65 826.426 1191.62 828.88 1191.1 831.255C1190.59 833.63 1189.61 835.879 1188.22 837.87C1186.82 839.86 1185.05 841.552 1182.99 842.846C1180.93 844.139 1178.64 845.008 1176.24 845.402L1170.7 846.314L1167.53 850.946C1166.16 852.952 1164.41 854.663 1162.36 855.98C1160.32 857.297 1158.04 858.193 1155.65 858.614C1153.26 859.036 1150.8 858.976 1148.43 858.436C1146.07 857.897 1143.83 856.889 1141.86 855.473L1137.3 852.198L1131.78 853.241C1129.39 853.691 1126.94 853.66 1124.56 853.148C1122.19 852.636 1119.94 851.654 1117.95 850.26C1115.96 848.867 1114.27 847.089 1112.97 845.032C1111.68 842.975 1110.81 840.68 1110.42 838.282L1109.5 832.743L1104.87 829.576C1102.87 828.206 1101.15 826.449 1099.84 824.408C1098.52 822.367 1097.62 820.083 1097.2 817.691C1096.78 815.299 1096.84 812.847 1097.38 810.478C1097.92 808.11 1098.93 805.873 1100.34 803.9L1103.62 799.339L1102.58 793.823C1102.13 791.435 1102.16 788.981 1102.67 786.606C1103.18 784.23 1104.16 781.981 1105.56 779.991C1106.95 778 1108.73 776.309 1110.79 775.015C1112.84 773.722 1115.14 772.853 1117.54 772.459L1123.07 771.546L1126.24 766.915C1127.61 764.909 1129.37 763.198 1131.41 761.881C1133.45 760.564 1135.73 759.668 1138.13 759.246C1140.52 758.824 1142.97 758.885 1145.34 759.424C1147.71 759.964 1149.94 760.971 1151.92 762.387L1148.24 767.506C1146.95 766.579 1145.49 765.92 1143.94 765.567C1142.39 765.214 1140.79 765.174 1139.22 765.45C1137.66 765.726 1136.16 766.312 1134.83 767.174C1133.49 768.035 1132.34 769.155 1131.45 770.467L1126.77 777.338L1118.55 778.684C1116.98 778.943 1115.48 779.512 1114.14 780.358C1112.79 781.204 1111.63 782.31 1110.72 783.611C1109.81 784.913 1109.17 786.383 1108.84 787.935C1108.5 789.488 1108.48 791.092 1108.77 792.653L1110.32 800.822L1105.46 807.576C1104.54 808.867 1103.88 810.33 1103.52 811.879C1103.17 813.428 1103.13 815.032 1103.41 816.597C1103.68 818.162 1104.27 819.656 1105.13 820.991C1105.99 822.326 1107.11 823.475 1108.42 824.371L1115.29 829.051L1116.64 837.268C1116.9 838.835 1117.47 840.335 1118.31 841.679C1119.16 843.023 1120.27 844.185 1121.57 845.095C1122.87 846.006 1124.34 846.647 1125.89 846.982C1127.44 847.316 1129.05 847.337 1130.61 847.043L1138.78 845.5L1145.53 850.355C1146.82 851.281 1148.29 851.941 1149.84 852.294C1151.38 852.647 1152.99 852.686 1154.55 852.41C1156.12 852.134 1157.61 851.548 1158.95 850.687C1160.28 849.825 1161.43 848.706 1162.33 847.393L1167.01 840.523L1175.22 839.176C1176.79 838.918 1178.29 838.349 1179.64 837.503C1180.98 836.657 1182.14 835.551 1183.05 834.249C1183.96 832.948 1184.6 831.478 1184.94 829.925C1185.27 828.372 1185.29 826.769 1185 825.208L1183.46 817.039L1188.31 810.285C1189.24 808.994 1189.9 807.531 1190.25 805.982C1190.6 804.432 1190.64 802.828 1190.37 801.264C1190.09 799.699 1189.51 798.205 1188.64 796.87C1187.78 795.535 1186.66 794.386 1185.35 793.49L1178.48 788.809L1177.13 780.593C1176.87 779.026 1176.31 777.526 1175.46 776.182C1174.61 774.838 1173.51 773.676 1172.21 772.765C1170.9 771.855 1169.43 771.213 1167.88 770.879C1166.33 770.544 1164.73 770.523 1163.16 770.818L1155 772.36Z" fill="white" fill-opacity="0.32"/>
<path d="M1143.97 828.658C1143.68 827.011 1144.05 825.315 1145.01 823.945C1145.97 822.575 1147.44 821.642 1149.08 821.352C1150.73 821.061 1152.43 821.437 1153.8 822.396C1155.17 823.356 1156.1 824.82 1156.39 826.468C1156.68 828.115 1156.3 829.81 1155.35 831.18C1154.39 832.55 1152.92 833.483 1151.27 833.774C1149.63 834.064 1147.93 833.689 1146.56 832.729C1145.19 831.77 1144.26 830.305 1143.97 828.658Z" fill="white" fill-opacity="0.32"/>
</g>
<g clip-path="url(#clip18_1903_22)">
<path d="M1396.68 86.235C1398.77 85.867 1399.55 84.1924 1399.44 81.7339C1399.1 78.3733 1399.78 76.455 1403.32 72.9802C1406.98 69.2929 1408.64 65.0612 1407.66 59.496C1406.21 51.2663 1399.51 46.6714 1391.17 48.1412C1384.84 49.2583 1380.58 53.1596 1379.54 58.4534C1379.2 59.9093 1379.16 61.4203 1379.44 62.8903C1379.87 65.3312 1381.4 66.6431 1383.52 66.2685C1385.21 65.9706 1386.19 64.8572 1386.47 62.4831C1386.8 58.6331 1388.73 56.225 1392.14 55.6237C1395.93 54.9556 1399.02 57.2658 1399.72 61.2285C1400.34 64.7254 1399.4 66.9532 1396.07 70.3586C1392.7 73.7259 1391.32 77.0497 1392.11 81.559L1392.23 82.2484C1392.7 84.9068 1394.34 86.6479 1396.68 86.235Z" fill="white" fill-opacity="0.32"/>
<path d="M1402.73 39.7823L1395.98 34.9276L1399.65 29.8092L1404.21 33.0845L1409.73 32.0414C1412.12 31.5912 1414.57 31.623 1416.95 32.1348C1419.32 32.6467 1421.57 33.6284 1423.56 35.0222C1425.55 36.4159 1427.24 38.1936 1428.54 40.2507C1429.83 42.3077 1430.7 44.6026 1431.09 47.0005L1432 52.5394L1436.64 55.7061C1438.64 57.0763 1440.35 58.8336 1441.67 60.8746C1442.99 62.9157 1443.88 65.1994 1444.3 67.5915C1444.73 69.9837 1444.67 72.436 1444.13 74.8044C1443.59 77.1728 1442.58 79.4095 1441.16 81.383L1437.89 85.944L1438.93 91.4598C1439.38 93.8477 1439.35 96.3015 1438.84 98.6769C1438.33 101.052 1437.34 103.301 1435.95 105.292C1434.56 107.282 1432.78 108.974 1430.72 110.267C1428.67 111.561 1426.37 112.43 1423.97 112.824L1418.43 113.736L1415.27 118.368C1413.9 120.373 1412.14 122.085 1410.1 123.402C1408.06 124.719 1405.77 125.615 1403.38 126.036C1400.99 126.458 1398.54 126.398 1396.17 125.858C1393.8 125.319 1391.56 124.311 1389.59 122.895L1385.03 119.62L1379.51 120.663C1377.13 121.113 1374.67 121.081 1372.3 120.57C1369.92 120.058 1367.67 119.076 1365.68 117.682C1363.69 116.288 1362 114.511 1360.71 112.454C1359.41 110.397 1358.54 108.102 1358.15 105.704L1357.24 100.165L1352.61 96.9983C1350.6 95.6281 1348.89 93.8708 1347.57 91.8298C1346.25 89.7887 1345.36 87.505 1344.94 85.1129C1344.51 82.7207 1344.58 80.2684 1345.11 77.9C1345.65 75.5316 1346.66 73.2949 1348.08 71.3214L1351.35 66.7604L1350.31 61.2446C1349.86 58.8567 1349.89 56.4029 1350.4 54.0275C1350.92 51.6521 1351.9 49.4031 1353.29 47.4126C1354.68 45.4221 1356.46 43.7304 1358.52 42.437C1360.58 41.1435 1362.87 40.2744 1365.27 39.8808L1370.81 38.9682L1373.97 34.3367C1375.34 32.331 1377.1 30.6194 1379.14 29.3025C1381.18 27.9855 1383.47 27.0899 1385.86 26.6681C1388.25 26.2463 1390.7 26.3068 1393.07 26.8463C1395.44 27.3857 1397.68 28.3931 1399.65 29.8092L1395.98 34.9276C1394.68 34.0011 1393.22 33.342 1391.67 32.989C1390.12 32.636 1388.52 32.5963 1386.95 32.8722C1385.39 33.1481 1383.9 33.7341 1382.56 34.5956C1381.23 35.4572 1380.08 36.5769 1379.18 37.889L1374.5 44.7599L1366.28 46.1062C1364.72 46.3645 1363.22 46.9334 1361.87 47.7795C1360.53 48.6256 1359.37 49.7318 1358.46 51.0331C1357.55 52.3344 1356.9 53.8046 1356.57 55.3573C1356.23 56.9101 1356.21 58.514 1356.51 60.0748L1358.05 68.2436L1353.2 74.9979C1352.27 76.2887 1351.61 77.7517 1351.26 79.3008C1350.9 80.85 1350.86 82.4541 1351.14 84.0189C1351.42 85.5836 1352 87.0774 1352.86 88.4125C1353.73 89.7475 1354.85 90.8968 1356.16 91.7928L1363.03 96.4732L1364.37 104.689C1364.63 106.257 1365.2 107.756 1366.05 109.101C1366.89 110.445 1368 111.606 1369.3 112.517C1370.6 113.428 1372.07 114.069 1373.63 114.404C1375.18 114.738 1376.78 114.759 1378.34 114.465L1386.51 112.922L1393.27 117.777C1394.56 118.703 1396.02 119.362 1397.57 119.715C1399.12 120.068 1400.72 120.108 1402.29 119.832C1403.85 119.556 1405.35 118.97 1406.68 118.109C1408.02 117.247 1409.17 116.127 1410.06 114.815L1414.74 107.944L1422.96 106.598C1424.53 106.34 1426.03 105.771 1427.37 104.925C1428.71 104.079 1429.88 102.973 1430.79 101.671C1431.7 100.37 1432.34 98.8998 1432.67 97.3471C1433.01 95.7943 1433.03 94.1904 1432.73 92.6296L1431.19 84.4608L1436.05 77.7065C1436.97 76.4157 1437.63 74.9527 1437.98 73.4035C1438.34 71.8544 1438.38 70.2502 1438.1 68.6855C1437.82 67.1208 1437.24 65.627 1436.38 64.2919C1435.52 62.9569 1434.4 61.8076 1433.08 60.9115L1426.21 56.2312L1424.87 48.0149C1424.61 46.4477 1424.04 44.948 1423.19 43.6038C1422.35 42.2595 1421.24 41.098 1419.94 40.1873C1418.64 39.2766 1417.17 38.6351 1415.62 38.3007C1414.06 37.9662 1412.46 37.9453 1410.9 38.2394L1402.73 39.7823Z" fill="white" fill-opacity="0.32"/>
<path d="M1391.7 96.0798C1391.41 94.4325 1391.79 92.7373 1392.75 91.3671C1393.71 89.9969 1395.17 89.0639 1396.82 88.7735C1398.46 88.483 1400.16 88.8588 1401.53 89.8182C1402.9 90.7777 1403.83 92.2421 1404.12 93.8894C1404.41 95.5367 1404.04 97.2319 1403.08 98.6021C1402.12 99.9723 1400.65 100.905 1399.01 101.196C1397.36 101.486 1395.67 101.11 1394.29 100.151C1392.92 99.1915 1391.99 97.7271 1391.7 96.0798Z" fill="white" fill-opacity="0.32"/>
</g>
</g>
<defs>
<clipPath id="clip0_1903_22">
<rect width="1440" height="1024" fill="white"/>
</clipPath>
<clipPath id="clip1_1903_22">
<rect width="100.911" height="100.911" fill="white" transform="translate(188 672.523) rotate(-10)"/>
</clipPath>
<clipPath id="clip2_1903_22">
<rect width="100.911" height="100.911" fill="white" transform="translate(1015 9.22607) rotate(-10)"/>
</clipPath>
<clipPath id="clip3_1903_22">
<rect width="100.911" height="100.911" fill="white" transform="translate(654.469 891.851) rotate(-10)"/>
</clipPath>
<clipPath id="clip4_1903_22">
<rect width="100.911" height="100.911" fill="white" transform="translate(1198.08 613.724) rotate(-10)"/>
</clipPath>
<clipPath id="clip5_1903_22">
<rect width="100.911" height="100.911" fill="white" transform="translate(456.527 48.1865) rotate(-10)"/>
</clipPath>
<clipPath id="clip6_1903_22">
<rect width="100.911" height="100.911" fill="white" transform="translate(-33.4755 918.399) rotate(-10)"/>
</clipPath>
<clipPath id="clip7_1903_22">
<rect width="100.911" height="100.911" fill="white" transform="translate(76.1689 425.485) rotate(-10)"/>
</clipPath>
<clipPath id="clip8_1903_22">
<rect width="100.911" height="100.911" fill="white" transform="translate(1241.08 301.287) rotate(-10)"/>
</clipPath>
<clipPath id="clip9_1903_22">
<rect width="100.911" height="100.911" fill="white" transform="translate(1013 957.523) rotate(-10)"/>
</clipPath>
<clipPath id="clip10_1903_22">
<rect width="100.911" height="100.911" fill="white" transform="translate(293 967.523) rotate(-10)"/>
</clipPath>
<clipPath id="clip11_1903_22">
<rect width="100.911" height="100.911" fill="white" transform="translate(-8.24713 651.566) rotate(-10)"/>
</clipPath>
<clipPath id="clip12_1903_22">
<rect width="100.911" height="100.911" fill="white" transform="translate(1135.32 128.573) rotate(-10)"/>
</clipPath>
<clipPath id="clip13_1903_22">
<rect width="100.911" height="100.911" fill="white" transform="translate(1340.71 745.685) rotate(-10)"/>
</clipPath>
<clipPath id="clip14_1903_22">
<rect width="100.911" height="100.911" fill="white" transform="translate(412.864 847.567) rotate(-10)"/>
</clipPath>
<clipPath id="clip15_1903_22">
<rect width="100.911" height="100.911" fill="white" transform="translate(175.14 195.524) rotate(-10)"/>
</clipPath>
<clipPath id="clip16_1903_22">
<rect width="100.911" height="100.911" fill="white" transform="translate(28.624 44.1572) rotate(-10)"/>
</clipPath>
<clipPath id="clip17_1903_22">
<rect width="100.911" height="100.911" fill="white" transform="translate(1088.44 768.002) rotate(-10)"/>
</clipPath>
<clipPath id="clip18_1903_22">
<rect width="100.911" height="100.911" fill="white" transform="translate(1336.17 35.4243) rotate(-10)"/>
</clipPath>
</defs>
</svg>
